<svg xmlns="http://www.w3.org/2000/svg" viewBox="0 0 64 64" width="64" height="64">
  <path fill="#1f2937" fill-rule="evenodd" d="M22.343 4h19.314L56 18.343v27.314L41.657 60H22.343L8 45.657V18.343L22.343 4Zm.828 4L12 19.171v25.658L23.171 56h17.658L52 44.829V19.171L40.829 8H23.171ZM32 18.5c-3.59 0-6.5 2.91-6.5 6.5 0 1.792.726 3.415 1.9 4.59A7.498 7.498 0 0 0 24.5 35.5c0 4.142 3.358 7.5 7.5 7.5s7.5-3.358 7.5-7.5a7.498 7.498 0 0 0-2.9-5.91A6.476 6.476 0 0 0 38.5 25c0-3.59-2.91-6.5-6.5-6.5Zm0 4a2.5 2.5 0 1 0 0 5 2.5 2.5 0 0 0 0-5Zm0 9a3.5 3.5 0 1 0 0 7 3.5 3.5 0 0 0 0-7Z" clip-rule="evenodd"/>
</svg>
