<svg xmlns="http://www.w3.org/2000/svg" xml:space="preserve" id="Layer_2_00000156551598509933943900000017927917491817594766_" x="0" y="0" style="enable-background:new 0 0 500 178.3" version="1.1" viewBox="0 0 500 178.3"><style>.st0{fill:#00549f}.st1{fill:#f98526}</style><g id="Art"><path d="M26.8 94c-.3 1.2-.5 2.4-.6 3.6-1.9 12.8.9 23 11.4 23 7.7 0 11.5-3.9 17.5-11.9l19 10.4c-7.5 11-18.9 21.7-39.8 21.7C8.2 140.8-3 122.4.7 97.5l.6-3.6c0 .1 25.5.1 25.5.1zM4.1 84.5c7.3-19.1 23.7-30.3 43.2-30.3 21.6 0 28.8 8.9 32.6 24.7l-23.3 8.3c-2-7.8-4.3-12.7-12.3-12.7-6.4 0-11.1 3.8-14.2 10h-26zM144.7 94c6.7 4.4 9.3 10.5 7.9 19.8-2.8 19.2-19.2 27.1-40.3 27.1-14.2 0-27.2-4.4-35.6-10.2l14.5-18.3c5.8 4.2 16.4 8.4 24.5 8.4 8.7 0 11.6-1.4 12.2-5.4.5-3.1-2.4-5-13.8-7.7-13.8-3.2-22.6-6.6-26-13.7h56.6zm-58.4-9.5c.1-1.2.2-2.5.4-3.8 2.3-15.8 17.4-26.5 38.6-26.5 14.9 0 25.2 3.5 33.6 9.7l-14.5 18.2c-7-5-14.4-7.9-23.3-7.9-7.3 0-9.4 2.2-9.8 5.2-.3 2.3 1.1 3.6 6 5.2h-31v-.1zM215.8 84.6l-5.2-29.1h-21.2l-13.8 29.1zM186.1 106.3h12.6l-1.4-12.4h20.2l8.2 45.6H203l-1.9-14.7h-22.7l-6.3 14.7h-22.5L171.2 94h20.1z" class="st0"/><path d="M214.8 17.7c-2.2-1.9-4.3-3-7.7-3-5.3 0-10 4.2-11.2 11.7-1.2 7.3 1.7 12 7.7 12 3.3 0 5.7-1.2 8.3-3.2l2.5 2.7c-3.2 2.6-6.8 4.2-11.6 4.2-7.4 0-13.5-5-11.9-15.4 1.7-11 9.9-15.7 17-15.7 4.6 0 7.8 1.5 10.2 3.5l-3.3 3.2zM222.7 41.4l6-39 5.2-2.4-6.4 41.5-4.8-.1zM249.8 42c-8.3 0-13.7-5.4-12.2-15.5 1.6-10.1 9-15.6 17.3-15.6s13.8 5.2 12.2 15.4c-1.6 10.1-9 15.7-17.3 15.7zm4.4-27.4c-5.9 0-10.4 3.9-11.6 11.8s2.1 11.9 7.9 11.9c5.8 0 10.5-4.1 11.7-11.9 1.3-7.8-2.1-11.8-8-11.8zM293.3 41.4l.6-3.6c-2.3 2.5-5.7 4.3-10 4.3-7.2 0-11.3-3.7-10-12.3l2.8-18.2h4.8L278.9 29c-1 6.4 1.2 9.3 6.6 9.3 4.7 0 8.8-2.8 9.8-9.3l2.7-17.5h4.8l-4.6 29.8h-4.9zM328 41.4l.6-3.6c-2.7 2.3-6.3 4.3-10.8 4.3-6.8 0-11.4-4.5-9.8-15 1.6-10.6 8.2-16 15.3-16 4.3 0 6.9 1.6 8.9 4L334 2.4l5.2-2.4-6.4 41.5-4.8-.1c0 .1 0 0 0 0zm3.4-22.3c-1.5-2.5-4.5-4.5-8.5-4.5-5.6 0-9 4.3-10.3 12.3-1.2 7.5 1.5 11.4 6.8 11.4 3.6 0 6.8-1.7 9.6-4.3l2.4-14.9zM244.8 177.7l.6-3.6c-2.7 2.3-6.4 4.3-11.3 4.3-5.3 0-10.5-2.3-9.4-9.6 1.1-6.7 7.7-9.6 14.5-9.6 3.4 0 6.4.7 8.2 1.7l.5-3.5c.7-4.4-1.4-6.6-6.4-6.6-3.5 0-6.6.8-9.6 2.3l-1.3-3.5c3.2-1.4 7.4-2.4 11.7-2.4 7.3 0 11.5 2.7 10.4 9.7l-3.2 20.8h-4.7zm2-13.4c-2.1-1.1-4.3-1.7-8.5-1.7-4.9 0-8.3 2.1-8.8 5.8-.7 4.4 1.8 6.4 5.9 6.4 4.4 0 8-2 10.4-4.5l1-6zM260.3 177.7l6-39 5.2-2.4-6.4 41.5-4.8-.1zM276.4 177.7l6-39 5.2-2.4-6.4 41.5-4.8-.1zM292.5 177.7l4.6-29.8h4.8l-4.6 29.8h-4.8zm7.9-35.2c-2 0-3.4-1.4-3.1-3 .3-1.7 2.1-3.1 4.1-3.1 1.8 0 3.2 1.4 2.9 3.1-.4 1.6-2.1 3-3.9 3zM327.6 177.7l.6-3.6c-2.7 2.3-6.4 4.3-11.3 4.3-5.3 0-10.5-2.3-9.4-9.6 1.1-6.7 7.7-9.6 14.5-9.6 3.4 0 6.4.7 8.2 1.7l.5-3.5c.7-4.4-1.4-6.6-6.4-6.6-3.5 0-6.6.8-9.6 2.3l-1.3-3.5c3.2-1.4 7.4-2.4 11.7-2.4 7.3 0 11.5 2.7 10.4 9.7l-3.2 20.8h-4.7zm2.1-13.4c-2.1-1.1-4.3-1.7-8.5-1.7-4.9 0-8.3 2.1-8.8 5.8-.7 4.4 1.8 6.4 5.9 6.4 4.4 0 8-2 10.4-4.5l1-6zM364.1 177.7l2.7-17.5c1-6.4-1.2-9.3-6.6-9.3-4.7 0-8.8 2.8-9.8 9.3l-2.7 17.5h-4.8l4.6-29.8h4.8l-.6 3.6c2.3-2.5 5.7-4.3 10-4.3 7.2 0 11.3 3.7 10 12.3l-2.8 18.2h-4.8zM403.6 153.9c-2.2-1.9-4.3-3-7.7-3-5.3 0-10 4.2-11.2 11.6-1.2 7.3 1.7 12 7.7 12 3.3 0 5.7-1.2 8.3-3.2l2.5 2.7c-3.2 2.6-6.8 4.2-11.6 4.2-7.4 0-13.5-5-11.9-15.4 1.7-11 9.9-15.7 17-15.7 4.6 0 7.8 1.5 10.2 3.5l-3.3 3.3zM437.8 164.2h-22.6c-.5 6.4 2.3 10.4 7.8 10.4 3.9 0 6.4-1 9.8-2.8l1.8 3.1c-4.4 2.3-7.6 3.5-12.7 3.5-6.2 0-13.2-4-11.3-15.7 1.5-9.5 8.3-15.4 16.4-15.4 8.8 0 12.7 6.2 11.4 14.7-.2.9-.4 1.5-.6 2.2zm-11.4-13.3c-5 0-9 3.2-10.6 9.8H434c.5-5.8-1.7-9.8-7.6-9.8zM282.4 106.5c-4.6 0-8.5-1.5-11.4-3.8l3.3-3.1c2.4 2.1 5.4 3.3 8.7 3.3 4.6 0 7.1-1.7 7.6-4.6.4-2.4-1.4-3.8-7-6.1-6.4-2.6-8.9-4.4-8.2-9.2.7-4.5 5.6-7.6 11.8-7.6 4.6 0 8 1.3 10.4 3.2l-3.2 3.1c-2.4-1.8-4.4-2.7-8-2.7-3.6 0-5.8 1.5-6.2 3.7-.4 2.5 1.2 3.5 6.6 5.8 6 2.6 9.5 4.2 8.7 9.6-1.1 5.8-7.3 8.4-13.1 8.4zM330.2 92.4h-22.6c-.5 6.4 2.3 10.4 7.8 10.4 3.9 0 6.4-1 9.8-2.8l1.8 3.1c-4.4 2.3-7.6 3.5-12.7 3.5-6.2 0-13.2-4-11.3-15.7 1.5-9.5 8.3-15.4 16.4-15.4 8.8 0 12.7 6.2 11.4 14.7-.2.9-.4 1.5-.6 2.2zm-11.5-13.3c-5 0-9 3.2-10.6 9.8h18.3c.5-5.8-1.7-9.8-7.7-9.8zM361.4 82.1c-2.2-1.9-4.3-3-7.7-3-5.3 0-10 4.2-11.2 11.7-1.2 7.3 1.7 12 7.7 12 3.3 0 5.7-1.2 8.3-3.2l2.5 2.7c-3.2 2.6-6.8 4.2-11.6 4.2-7.4 0-13.5-5-11.9-15.4 1.7-11 9.9-15.7 17-15.7 4.6 0 7.8 1.5 10.2 3.5l-3.3 3.2zM388.8 105.8l.6-3.6c-2.3 2.5-5.7 4.3-10 4.3-7.2 0-11.3-3.7-10-12.3l2.8-18.2h4.8l-2.7 17.5c-1 6.4 1.2 9.3 6.6 9.3 4.7 0 8.8-2.8 9.8-9.3l2.7-17.5h4.8l-4.6 29.8h-4.8zM425.4 80.4c-1.3-.7-2.7-1.2-4.9-1.2-4.7 0-7.9 3.4-8.7 9l-2.7 17.5h-4.8l4.6-29.8h4.8l-.6 3.7c1.9-2.4 5.4-4.3 9-4.3 2.5 0 4.1.3 5.2.7l-1.9 4.4zM430.7 105.8l4.6-29.8h4.8l-4.6 29.8h-4.8zm7.9-35.2c-2 0-3.4-1.4-3.1-3 .3-1.7 2.1-3.1 4.1-3.1 1.8 0 3.2 1.4 2.9 3.1-.3 1.7-2 3-3.9 3zM456.7 79.6l-3 19.5c-.4 2.7.3 3.6 2.9 3.6 1.9 0 3.3-.3 4.9-.8l-.9 3.7c-2 .7-3.8 1-6.4 1-4.2 0-6.2-1.8-5.4-6.8l3.1-20.1h-4.2l.6-3.6h4.2l1.4-9.2 5.2-2.4-1.9 11.5h8.4l-.6 3.6h-8.3zM476.9 116.4h-4.8l6.3-10.8-7.5-29.6h5.1l4.9 21.7.7 3.1 1.6-3L494.9 76h5.1l-23.1 40.4zM450.3 148.1c0-3.1 1.1-5.6 3.3-7.8 2.2-2.2 4.8-3.3 7.8-3.3s5.7 1.1 7.8 3.3c2.2 2.2 3.3 4.8 3.3 7.8s-1.1 5.7-3.3 7.8c-2.2 2.2-4.8 3.3-7.8 3.3s-5.7-1.1-7.8-3.3c-2.2-2.1-3.3-4.8-3.3-7.8zm20.3 0c0-2.6-.9-4.7-2.7-6.5-1.8-1.8-4-2.7-6.5-2.7s-4.7.9-6.6 2.7c-1.8 1.8-2.7 4-2.7 6.5s.9 4.7 2.7 6.6c1.8 1.8 4 2.7 6.6 2.7s4.7-.9 6.5-2.7c1.9-1.8 2.7-4 2.7-6.6zm-5.7 6.7-3.5-5.8h-1.9v5.8h-1.9v-13.6h3.5c3.3 0 4.9 1.3 4.9 3.8 0 1.7-.9 3-2.6 3.7l3.7 6.2-2.2-.1zm-5.5-12v4.5c.2 0 .6.1 1.3.1 1.3 0 2.1-.2 2.6-.5.4-.3.6-.9.6-1.8 0-1.5-1-2.3-2.9-2.3h-1.6z" class="st1"/></g></svg>
