<?xml version="1.0" encoding="UTF-8" standalone="no"?>
<!DOCTYPE svg PUBLIC "-//W3C//DTD SVG 1.1//EN" "http://www.w3.org/Graphics/SVG/1.1/DTD/svg11.dtd">
<svg xmlns="http://www.w3.org/2000/svg" version="1.1" viewBox="0.00 0.00 100.00 100.00">
<g stroke-width="2.00" fill="none" stroke-linecap="butt">
<path stroke="#848584" vector-effect="non-scaling-stroke" d="
  M 48.23 60.97
  L 43.12 67.44
  Q 42.76 67.89 42.23 67.66
  C 36.78 65.22 31.94 71.81 36.22 76.09
  Q 38.02 77.89 40.38 77.56
  C 43.18 77.18 45.96 74.47 45.02 71.42
  Q 44.65 70.21 44.02 69.09
  Q 43.75 68.62 44.08 68.20
  L 49.24 61.63
  Q 49.56 61.22 50.06 61.39
  Q 61.24 65.17 65.37 53.86
  Q 65.55 53.39 66.05 53.37
  L 76.75 53.00
  Q 77.69 52.96 77.90 53.88
  C 79.90 62.49 90.68 65.73 96.38 58.39
  C 101.86 51.31 96.65 39.99 86.93 41.28
  Q 78.93 42.35 77.60 51.24
  Q 77.53 51.70 77.05 51.72
  L 66.20 52.15
  Q 65.56 52.17 65.46 51.54
  C 64.95 48.35 64.30 46.30 62.01 43.93
  Q 61.60 43.50 61.97 43.03
  L 67.61 35.97
  Q 68.00 35.49 68.56 35.76
  C 75.35 39.06 79.78 29.09 73.12 26.29
  C 68.17 24.21 64.34 29.50 66.80 34.16
  Q 67.05 34.64 66.71 35.07
  L 61.01 42.25
  Q 60.65 42.71 60.11 42.47
  Q 51.98 38.79 46.37 45.44
  Q 46.00 45.87 45.52 45.57
  L 34.41 38.51
  Q 33.89 38.18 34.05 37.59
  C 34.32 36.55 34.82 35.64 34.96 34.55
  C 36.06 25.73 26.63 19.00 18.95 24.03
  C 13.82 27.39 12.49 33.80 16.12 39.22
  Q 16.46 39.73 16.03 40.16
  L 9.27 46.81
  A 0.72 0.72 0.0 0 1 8.50 46.97
  C -0.18 43.45 -2.23 55.00 4.29 56.50
  C 9.15 57.63 12.10 52.98 9.95 48.66
  Q 9.69 48.12 10.11 47.71
  L 16.76 41.14
  Q 17.16 40.74 17.63 41.07
  Q 25.88 46.89 32.97 39.48
  Q 33.23 39.21 33.55 39.41
  L 44.90 46.63
  Q 45.31 46.89 45.26 47.37
  Q 45.24 47.67 45.08 47.94
  Q 44.82 48.39 44.71 48.90
  Q 43.26 55.44 48.15 59.96
  Q 48.66 60.43 48.23 60.97"
/>
<path stroke="#848584" vector-effect="non-scaling-stroke" d="
  M 34.25 32.97
  A 9.72 9.72 0.0 0 0 24.53 23.25
  A 9.72 9.72 0.0 0 0 14.81 32.97
  A 9.72 9.72 0.0 0 0 24.53 42.69
  A 9.72 9.72 0.0 0 0 34.25 32.97"
/>
<path stroke="#825212" vector-effect="non-scaling-stroke" d="
  M 75.76 31.11
  A 4.63 4.63 0.0 0 0 71.13 26.48
  A 4.63 4.63 0.0 0 0 66.50 31.11
  A 4.63 4.63 0.0 0 0 71.13 35.74
  A 4.63 4.63 0.0 0 0 75.76 31.11"
/>
<path stroke="#848584" vector-effect="non-scaling-stroke" d="
  M 64.59 51.77
  A 9.72 9.72 0.0 0 0 54.87 42.05
  A 9.72 9.72 0.0 0 0 45.15 51.77
  A 9.72 9.72 0.0 0 0 54.87 61.49
  A 9.72 9.72 0.0 0 0 64.59 51.77"
/>
<path stroke="#848584" vector-effect="non-scaling-stroke" d="
  M 97.88 51.77
  A 9.71 9.71 0.0 0 0 88.17 42.06
  A 9.71 9.71 0.0 0 0 78.46 51.77
  A 9.71 9.71 0.0 0 0 88.17 61.48
  A 9.71 9.71 0.0 0 0 97.88 51.77"
/>
<path stroke="#825212" vector-effect="non-scaling-stroke" d="
  M 10.13 51.48
  A 4.54 4.54 0.0 0 0 5.59 46.94
  A 4.54 4.54 0.0 0 0 1.05 51.48
  A 4.54 4.54 0.0 0 0 5.59 56.02
  A 4.54 4.54 0.0 0 0 10.13 51.48"
/>
<path stroke="#825212" vector-effect="non-scaling-stroke" d="
  M 44.56 72.32
  A 4.65 4.65 0.0 0 0 39.91 67.67
  A 4.65 4.65 0.0 0 0 35.26 72.32
  A 4.65 4.65 0.0 0 0 39.91 76.97
  A 4.65 4.65 0.0 0 0 44.56 72.32"
/>
<path stroke="#848584" vector-effect="non-scaling-stroke" d="
  M 25.04 30.94
  Q 25.24 31.16 25.52 31.12
  Q 27.86 30.86 25.89 29.54
  Q 24.29 28.46 22.93 29.73
  C 21.78 30.79 22.00 33.06 22.12 34.53
  C 22.41 38.14 27.59 37.43 26.98 33.28
  Q 26.89 32.71 26.33 32.57
  Q 25.69 32.42 25.01 32.63
  Q 23.86 32.99 24.83 33.70
  Q 26.06 34.60 24.84 35.30
  A 0.71 0.70 65.0 0 1 23.83 34.93
  Q 23.12 33.02 23.74 31.22
  Q 24.15 29.99 25.04 30.94"
/>
<path stroke="#848584" vector-effect="non-scaling-stroke" d="
  M 54.33 49.42
  Q 54.00 48.76 53.41 48.45
  Q 52.77 48.13 52.80 48.84
  Q 52.83 49.81 53.56 50.51
  Q 54.56 51.46 53.73 52.56
  Q 53.08 53.43 52.75 54.46
  Q 52.58 54.98 53.13 55.02
  L 53.45 55.04
  A 0.49 0.48 -80.1 0 0 53.94 54.69
  Q 54.15 53.92 54.75 53.63
  Q 55.16 53.44 55.32 53.86
  Q 55.76 55.04 56.85 54.98
  Q 57.42 54.94 57.12 54.44
  L 55.71 52.11
  Q 55.28 51.40 55.88 50.82
  Q 56.63 50.12 57.00 49.11
  A 0.44 0.43 18.4 0 0 56.71 48.54
  L 56.40 48.45
  A 0.55 0.55 0.0 0 0 55.75 48.74
  Q 55.52 49.20 55.17 49.55
  Q 54.66 50.06 54.33 49.42"
/>
<path stroke="#848584" vector-effect="non-scaling-stroke" d="
  M 87.99 52.73
  C 92.09 52.99 91.31 46.51 86.30 47.93
  Q 85.74 48.08 85.74 48.67
  L 85.73 54.86
  Q 85.73 55.74 86.61 55.65
  L 86.93 55.62
  A 0.51 0.50 85.5 0 0 87.39 55.07
  L 87.27 53.45
  Q 87.21 52.68 87.99 52.73"
/>
<path stroke="#848584" vector-effect="non-scaling-stroke" d="
  M 87.98 51.33
  L 88.46 51.24
  Q 89.03 51.13 89.07 50.55
  Q 89.12 49.66 88.34 49.29
  Q 87.97 49.11 87.66 49.38
  Q 87.04 49.92 87.23 50.84
  Q 87.36 51.46 87.98 51.33"
/>
</g>
<path fill="#fefefe" d="
  M 0.00 0.00
  L 100.00 0.00
  L 100.00 100.00
  L 0.00 100.00
  L 0.00 0.00
  Z
  M 48.23 60.97
  L 43.12 67.44
  Q 42.76 67.89 42.23 67.66
  C 36.78 65.22 31.94 71.81 36.22 76.09
  Q 38.02 77.89 40.38 77.56
  C 43.18 77.18 45.96 74.47 45.02 71.42
  Q 44.65 70.21 44.02 69.09
  Q 43.75 68.62 44.08 68.20
  L 49.24 61.63
  Q 49.56 61.22 50.06 61.39
  Q 61.24 65.17 65.37 53.86
  Q 65.55 53.39 66.05 53.37
  L 76.75 53.00
  Q 77.69 52.96 77.90 53.88
  C 79.90 62.49 90.68 65.73 96.38 58.39
  C 101.86 51.31 96.65 39.99 86.93 41.28
  Q 78.93 42.35 77.60 51.24
  Q 77.53 51.70 77.05 51.72
  L 66.20 52.15
  Q 65.56 52.17 65.46 51.54
  C 64.95 48.35 64.30 46.30 62.01 43.93
  Q 61.60 43.50 61.97 43.03
  L 67.61 35.97
  Q 68.00 35.49 68.56 35.76
  C 75.35 39.06 79.78 29.09 73.12 26.29
  C 68.17 24.21 64.34 29.50 66.80 34.16
  Q 67.05 34.64 66.71 35.07
  L 61.01 42.25
  Q 60.65 42.71 60.11 42.47
  Q 51.98 38.79 46.37 45.44
  Q 46.00 45.87 45.52 45.57
  L 34.41 38.51
  Q 33.89 38.18 34.05 37.59
  C 34.32 36.55 34.82 35.64 34.96 34.55
  C 36.06 25.73 26.63 19.00 18.95 24.03
  C 13.82 27.39 12.49 33.80 16.12 39.22
  Q 16.46 39.73 16.03 40.16
  L 9.27 46.81
  A 0.72 0.72 0.0 0 1 8.50 46.97
  C -0.18 43.45 -2.23 55.00 4.29 56.50
  C 9.15 57.63 12.10 52.98 9.95 48.66
  Q 9.69 48.12 10.11 47.71
  L 16.76 41.14
  Q 17.16 40.74 17.63 41.07
  Q 25.88 46.89 32.97 39.48
  Q 33.23 39.21 33.55 39.41
  L 44.90 46.63
  Q 45.31 46.89 45.26 47.37
  Q 45.24 47.67 45.08 47.94
  Q 44.82 48.39 44.71 48.90
  Q 43.26 55.44 48.15 59.96
  Q 48.66 60.43 48.23 60.97
  Z"
/>
<path fill="#0a0b0a" d="
  M 48.15 59.96
  Q 43.26 55.44 44.71 48.90
  Q 44.82 48.39 45.08 47.94
  Q 45.24 47.67 45.26 47.37
  Q 45.31 46.89 44.90 46.63
  L 33.55 39.41
  Q 33.23 39.21 32.97 39.48
  Q 25.88 46.89 17.63 41.07
  Q 17.16 40.74 16.76 41.14
  L 10.11 47.71
  Q 9.69 48.12 9.95 48.66
  C 12.10 52.98 9.15 57.63 4.29 56.50
  C -2.23 55.00 -0.18 43.45 8.50 46.97
  A 0.72 0.72 0.0 0 0 9.27 46.81
  L 16.03 40.16
  Q 16.46 39.73 16.12 39.22
  C 12.49 33.80 13.82 27.39 18.95 24.03
  C 26.63 19.00 36.06 25.73 34.96 34.55
  C 34.82 35.64 34.32 36.55 34.05 37.59
  Q 33.89 38.18 34.41 38.51
  L 45.52 45.57
  Q 46.00 45.87 46.37 45.44
  Q 51.98 38.79 60.11 42.47
  Q 60.65 42.71 61.01 42.25
  L 66.71 35.07
  Q 67.05 34.64 66.80 34.16
  C 64.34 29.50 68.17 24.21 73.12 26.29
  C 79.78 29.09 75.35 39.06 68.56 35.76
  Q 68.00 35.49 67.61 35.97
  L 61.97 43.03
  Q 61.60 43.50 62.01 43.93
  C 64.30 46.30 64.95 48.35 65.46 51.54
  Q 65.56 52.17 66.20 52.15
  L 77.05 51.72
  Q 77.53 51.70 77.60 51.24
  Q 78.93 42.35 86.93 41.28
  C 96.65 39.99 101.86 51.31 96.38 58.39
  C 90.68 65.73 79.90 62.49 77.90 53.88
  Q 77.69 52.96 76.75 53.00
  L 66.05 53.37
  Q 65.55 53.39 65.37 53.86
  Q 61.24 65.17 50.06 61.39
  Q 49.56 61.22 49.24 61.63
  L 44.08 68.20
  Q 43.75 68.62 44.02 69.09
  Q 44.65 70.21 45.02 71.42
  C 45.96 74.47 43.18 77.18 40.38 77.56
  Q 38.02 77.89 36.22 76.09
  C 31.94 71.81 36.78 65.22 42.23 67.66
  Q 42.76 67.89 43.12 67.44
  L 48.23 60.97
  Q 48.66 60.43 48.15 59.96
  Z
  M 34.25 32.97
  A 9.72 9.72 0.0 0 0 24.53 23.25
  A 9.72 9.72 0.0 0 0 14.81 32.97
  A 9.72 9.72 0.0 0 0 24.53 42.69
  A 9.72 9.72 0.0 0 0 34.25 32.97
  Z
  M 75.76 31.11
  A 4.63 4.63 0.0 0 0 71.13 26.48
  A 4.63 4.63 0.0 0 0 66.50 31.11
  A 4.63 4.63 0.0 0 0 71.13 35.74
  A 4.63 4.63 0.0 0 0 75.76 31.11
  Z
  M 64.59 51.77
  A 9.72 9.72 0.0 0 0 54.87 42.05
  A 9.72 9.72 0.0 0 0 45.15 51.77
  A 9.72 9.72 0.0 0 0 54.87 61.49
  A 9.72 9.72 0.0 0 0 64.59 51.77
  Z
  M 97.88 51.77
  A 9.71 9.71 0.0 0 0 88.17 42.06
  A 9.71 9.71 0.0 0 0 78.46 51.77
  A 9.71 9.71 0.0 0 0 88.17 61.48
  A 9.71 9.71 0.0 0 0 97.88 51.77
  Z
  M 10.13 51.48
  A 4.54 4.54 0.0 0 0 5.59 46.94
  A 4.54 4.54 0.0 0 0 1.05 51.48
  A 4.54 4.54 0.0 0 0 5.59 56.02
  A 4.54 4.54 0.0 0 0 10.13 51.48
  Z
  M 44.56 72.32
  A 4.65 4.65 0.0 0 0 39.91 67.67
  A 4.65 4.65 0.0 0 0 35.26 72.32
  A 4.65 4.65 0.0 0 0 39.91 76.97
  A 4.65 4.65 0.0 0 0 44.56 72.32
  Z"
/>
<path fill="#fefefe" d="
  M 34.25 32.97
  A 9.72 9.72 0.0 0 1 24.53 42.69
  A 9.72 9.72 0.0 0 1 14.81 32.97
  A 9.72 9.72 0.0 0 1 24.53 23.25
  A 9.72 9.72 0.0 0 1 34.25 32.97
  Z
  M 25.04 30.94
  Q 25.24 31.16 25.52 31.12
  Q 27.86 30.86 25.89 29.54
  Q 24.29 28.46 22.93 29.73
  C 21.78 30.79 22.00 33.06 22.12 34.53
  C 22.41 38.14 27.59 37.43 26.98 33.28
  Q 26.89 32.71 26.33 32.57
  Q 25.69 32.42 25.01 32.63
  Q 23.86 32.99 24.83 33.70
  Q 26.06 34.60 24.84 35.30
  A 0.71 0.70 65.0 0 1 23.83 34.93
  Q 23.12 33.02 23.74 31.22
  Q 24.15 29.99 25.04 30.94
  Z"
/>
<circle fill="#f9981a" cx="71.13" cy="31.11" r="4.63"/>
<path fill="#0a0b0a" d="
  M 23.74 31.22
  Q 23.12 33.02 23.83 34.93
  A 0.71 0.70 65.0 0 0 24.84 35.30
  Q 26.06 34.60 24.83 33.70
  Q 23.86 32.99 25.01 32.63
  Q 25.69 32.42 26.33 32.57
  Q 26.89 32.71 26.98 33.28
  C 27.59 37.43 22.41 38.14 22.12 34.53
  C 22.00 33.06 21.78 30.79 22.93 29.73
  Q 24.29 28.46 25.89 29.54
  Q 27.86 30.86 25.52 31.12
  Q 25.24 31.16 25.04 30.94
  Q 24.15 29.99 23.74 31.22
  Z"
/>
<path fill="#fefefe" d="
  M 64.59 51.77
  A 9.72 9.72 0.0 0 1 54.87 61.49
  A 9.72 9.72 0.0 0 1 45.15 51.77
  A 9.72 9.72 0.0 0 1 54.87 42.05
  A 9.72 9.72 0.0 0 1 64.59 51.77
  Z
  M 54.33 49.42
  Q 54.00 48.76 53.41 48.45
  Q 52.77 48.13 52.80 48.84
  Q 52.83 49.81 53.56 50.51
  Q 54.56 51.46 53.73 52.56
  Q 53.08 53.43 52.75 54.46
  Q 52.58 54.98 53.13 55.02
  L 53.45 55.04
  A 0.49 0.48 -80.1 0 0 53.94 54.69
  Q 54.15 53.92 54.75 53.63
  Q 55.16 53.44 55.32 53.86
  Q 55.76 55.04 56.85 54.98
  Q 57.42 54.94 57.12 54.44
  L 55.71 52.11
  Q 55.28 51.40 55.88 50.82
  Q 56.63 50.12 57.00 49.11
  A 0.44 0.43 18.4 0 0 56.71 48.54
  L 56.40 48.45
  A 0.55 0.55 0.0 0 0 55.75 48.74
  Q 55.52 49.20 55.17 49.55
  Q 54.66 50.06 54.33 49.42
  Z"
/>
<path fill="#fefefe" d="
  M 97.88 51.77
  A 9.71 9.71 0.0 0 1 88.17 61.48
  A 9.71 9.71 0.0 0 1 78.46 51.77
  A 9.71 9.71 0.0 0 1 88.17 42.06
  A 9.71 9.71 0.0 0 1 97.88 51.77
  Z
  M 87.99 52.73
  C 92.09 52.99 91.31 46.51 86.30 47.93
  Q 85.74 48.08 85.74 48.67
  L 85.73 54.86
  Q 85.73 55.74 86.61 55.65
  L 86.93 55.62
  A 0.51 0.50 85.5 0 0 87.39 55.07
  L 87.27 53.45
  Q 87.21 52.68 87.99 52.73
  Z"
/>
<circle fill="#f9981a" cx="5.59" cy="51.48" r="4.54"/>
<path fill="#0a0b0a" d="
  M 87.27 53.45
  L 87.39 55.07
  A 0.51 0.50 85.5 0 1 86.93 55.62
  L 86.61 55.65
  Q 85.73 55.74 85.73 54.86
  L 85.74 48.67
  Q 85.74 48.08 86.30 47.93
  C 91.31 46.51 92.09 52.99 87.99 52.73
  Q 87.21 52.68 87.27 53.45
  Z
  M 87.98 51.33
  L 88.46 51.24
  Q 89.03 51.13 89.07 50.55
  Q 89.12 49.66 88.34 49.29
  Q 87.97 49.11 87.66 49.38
  Q 87.04 49.92 87.23 50.84
  Q 87.36 51.46 87.98 51.33
  Z"
/>
<path fill="#0a0b0a" d="
  M 55.17 49.55
  Q 55.52 49.20 55.75 48.74
  A 0.55 0.55 0.0 0 1 56.40 48.45
  L 56.71 48.54
  A 0.44 0.43 18.4 0 1 57.00 49.11
  Q 56.63 50.12 55.88 50.82
  Q 55.28 51.40 55.71 52.11
  L 57.12 54.44
  Q 57.42 54.94 56.85 54.98
  Q 55.76 55.04 55.32 53.86
  Q 55.16 53.44 54.75 53.63
  Q 54.15 53.92 53.94 54.69
  A 0.49 0.48 -80.1 0 1 53.45 55.04
  L 53.13 55.02
  Q 52.58 54.98 52.75 54.46
  Q 53.08 53.43 53.73 52.56
  Q 54.56 51.46 53.56 50.51
  Q 52.83 49.81 52.80 48.84
  Q 52.77 48.13 53.41 48.45
  Q 54.00 48.76 54.33 49.42
  Q 54.66 50.06 55.17 49.55
  Z"
/>
<path fill="#fefefe" d="
  M 87.98 51.33
  Q 87.36 51.46 87.23 50.84
  Q 87.04 49.92 87.66 49.38
  Q 87.97 49.11 88.34 49.29
  Q 89.12 49.66 89.07 50.55
  Q 89.03 51.13 88.46 51.24
  L 87.98 51.33
  Z"
/>
<circle fill="#f9981a" cx="39.91" cy="72.32" r="4.65"/>
</svg>
