<?xml version="1.0" encoding="UTF-8" standalone="no"?>
<!DOCTYPE svg PUBLIC "-//W3C//DTD SVG 1.1//EN" "http://www.w3.org/Graphics/SVG/1.1/DTD/svg11.dtd">
<svg xmlns="http://www.w3.org/2000/svg" version="1.1" viewBox="0.00 0.00 500.00 300.00">
<path fill="#016299" d="
  M 158.03 92.18
  A 0.27 0.26 -50.8 0 0 157.56 92.23
  L 133.49 153.75
  Q 133.29 154.26 132.74 154.26
  L 117.81 154.27
  Q 117.04 154.27 116.75 153.55
  L 93.39 93.85
  Q 92.38 91.25 91.83 93.99
  L 79.83 153.77
  Q 79.73 154.26 79.23 154.26
  L 58.72 154.26
  A 0.45 0.45 0.0 0 1 58.28 153.72
  L 78.16 53.57
  Q 78.22 53.25 78.55 53.25
  L 98.56 53.25
  Q 99.17 53.25 99.41 53.82
  L 124.60 114.49
  Q 125.30 116.18 125.99 114.48
  L 151.01 53.62
  A 0.59 0.59 0.0 0 1 151.56 53.25
  L 171.54 53.25
  Q 172.10 53.25 172.21 53.80
  L 192.72 153.73
  A 0.47 0.46 -5.6 0 1 192.26 154.28
  L 170.98 154.26
  A 0.48 0.48 0.0 0 1 170.51 153.88
  Q 164.38 123.38 158.25 92.76
  Q 158.18 92.40 158.03 92.18
  Z"
/>
<rect fill="#016299" x="197.86" y="53.25" width="20.38" height="101.02" rx="0.38"/>
<path fill="#016299" d="
  M 248.05 70.24
  A 0.57 0.57 0.0 0 0 247.49 69.57
  L 225.05 69.62
  Q 224.49 69.62 224.49 69.05
  L 224.49 53.50
  Q 224.49 53.25 224.75 53.25
  L 291.20 53.25
  A 0.46 0.45 -0.0 0 1 291.66 53.70
  L 291.69 69.02
  A 0.58 0.58 0.0 0 1 291.11 69.60
  L 268.55 69.58
  Q 267.89 69.58 267.89 70.24
  L 267.87 153.71
  Q 267.87 154.29 267.29 154.29
  L 248.53 154.26
  Q 247.99 154.26 247.98 153.71
  Q 247.90 113.33 247.96 71.39
  Q 247.96 70.81 248.05 70.24
  Z"
/>
<path fill="#016299" d="
  M 378.18 151.96
  L 378.20 53.90
  A 0.65 0.65 0.0 0 1 378.85 53.25
  L 439.77 53.25
  Q 440.30 53.25 440.30 53.77
  L 440.30 69.02
  Q 440.30 69.59 439.73 69.59
  L 399.08 69.59
  Q 398.49 69.59 398.49 70.17
  L 398.49 95.03
  A 0.54 0.54 0.0 0 0 399.03 95.57
  L 439.23 95.55
  A 0.69 0.68 -0.0 0 1 439.92 96.23
  L 439.95 111.28
  A 0.73 0.72 -89.6 0 1 439.22 112.01
  L 398.92 111.98
  A 0.43 0.43 0.0 0 0 398.49 112.41
  L 398.49 137.15
  A 0.65 0.65 0.0 0 0 399.15 137.80
  L 439.78 137.76
  Q 440.29 137.76 440.29 138.28
  L 440.30 153.73
  Q 440.30 154.27 439.76 154.27
  L 354.77 154.26
  Q 354.04 154.26 353.59 153.69
  L 322.21 113.37
  Q 321.59 112.58 321.59 111.57
  L 321.58 94.93
  Q 321.58 94.33 322.18 94.31
  Q 330.93 94.07 341.46 94.08
  C 347.32 94.08 353.98 90.87 355.04 84.56
  C 356.49 76.04 350.55 70.28 342.17 70.27
  Q 330.13 70.26 318.50 70.23
  A 0.36 0.36 0.0 0 0 318.14 70.59
  L 318.14 153.69
  Q 318.14 154.28 317.56 154.28
  L 298.50 154.26
  A 0.52 0.51 0.6 0 1 297.99 153.75
  L 297.98 53.63
  Q 297.98 53.20 298.41 53.21
  Q 318.18 53.37 340.34 53.16
  Q 348.47 53.08 354.39 54.64
  C 363.38 57.00 372.60 64.63 374.49 74.23
  C 376.35 83.66 375.47 94.49 368.51 101.41
  Q 358.96 110.89 344.12 111.94
  A 0.69 0.69 0.0 0 0 343.64 113.07
  L 376.85 152.45
  Q 378.18 154.02 378.18 151.96
  Z"
/>
<path fill="#c64128" d="
  M 230.30 202.72
  C 225.79 198.17 222.44 192.50 223.68 186.06
  Q 225.88 174.61 237.19 171.82
  C 243.35 170.31 250.25 172.62 254.56 177.46
  C 260.15 183.76 260.08 193.76 254.44 200.16
  Q 251.26 203.77 246.86 205.76
  A 0.90 0.90 0.0 0 0 246.56 207.18
  L 254.93 216.61
  A 0.69 0.68 39.0 0 0 256.04 216.50
  L 263.39 203.88
  Q 263.51 203.67 263.76 203.67
  L 274.57 203.66
  Q 274.82 203.66 274.70 203.88
  L 263.00 224.53
  Q 262.72 225.02 263.10 225.44
  L 275.42 238.78
  A 0.38 0.38 0.0 0 1 275.39 239.32
  L 268.56 245.42
  A 0.45 0.44 47.3 0 1 267.94 245.39
  L 258.30 234.72
  A 0.78 0.78 0.0 0 0 257.06 234.82
  C 251.41 243.84 242.45 248.65 231.77 245.21
  C 216.95 240.42 210.30 223.12 220.67 210.78
  C 223.18 207.79 226.82 205.56 230.20 203.52
  Q 230.76 203.18 230.30 202.72
  Z
  M 248.91 190.31
  C 249.51 185.51 247.25 181.73 242.19 181.06
  C 238.82 180.60 235.04 182.40 233.78 185.57
  C 231.59 191.08 235.32 195.52 239.43 199.17
  Q 239.81 199.50 240.25 199.27
  C 244.10 197.30 248.33 195.00 248.91 190.31
  Z
  M 248.77 224.33
  L 238.93 213.60
  A 4.22 4.22 0.0 0 0 232.97 213.34
  L 229.66 216.37
  A 11.43 11.41 47.5 0 0 228.97 232.50
  L 229.06 232.61
  A 11.43 11.41 47.5 0 0 245.19 233.33
  L 248.50 230.29
  A 4.22 4.22 0.0 0 0 248.77 224.33
  Z"
/>
<path fill="#c64128" d="
  M 316.53 236.21
  C 325.70 237.60 333.15 234.06 339.52 227.34
  Q 339.84 227.00 340.30 227.00
  L 351.79 226.98
  Q 352.78 226.97 352.26 227.81
  Q 343.43 242.15 327.68 245.58
  C 306.15 250.26 286.42 234.20 283.32 213.61
  C 279.76 189.93 301.11 168.47 324.78 171.76
  Q 343.44 174.35 352.65 190.63
  Q 352.99 191.23 352.30 191.23
  L 341.44 191.23
  A 2.35 2.32 -21.3 0 1 339.73 190.49
  C 330.13 180.10 315.42 177.80 304.03 186.97
  Q 295.74 193.64 294.02 204.40
  C 291.70 218.96 301.67 233.95 316.53 236.21
  Z"
/>
<path fill="#c64128" d="
  M 372.00 212.51
  Q 373.04 213.66 373.04 215.17
  Q 373.03 229.75 373.10 244.32
  Q 373.10 244.93 372.49 244.93
  L 362.91 244.88
  A 0.59 0.58 -90.0 0 1 362.33 244.29
  L 362.33 173.44
  A 0.48 0.48 0.0 0 1 362.81 172.96
  L 372.70 172.95
  Q 373.06 172.95 373.06 173.31
  Q 373.13 184.59 372.84 195.52
  C 372.74 198.97 373.39 202.37 373.05 205.87
  Q 372.81 208.40 374.27 206.32
  Q 378.12 200.83 382.18 195.74
  Q 386.47 190.36 390.19 185.21
  Q 394.58 179.13 398.83 173.21
  Q 398.94 173.06 399.12 173.04
  Q 400.52 172.93 411.21 172.92
  A 0.05 0.04 -69.3 0 1 411.24 173.00
  Q 397.61 190.69 384.61 207.81
  A 0.78 0.77 45.4 0 0 384.61 208.74
  Q 397.76 226.47 411.39 244.88
  A 0.04 0.04 0.0 0 1 411.36 244.94
  Q 399.76 244.99 399.30 244.89
  Q 399.13 244.85 399.03 244.72
  Q 387.57 228.88 375.97 212.45
  Q 375.60 211.92 374.96 211.91
  L 372.29 211.86
  A 0.39 0.39 0.0 0 0 372.00 212.51
  Z"
/>
<path fill="#c64128" d="
  M 78.48 225.70
  L 70.67 244.67
  A 0.43 0.43 0.0 0 1 70.27 244.94
  L 59.40 244.99
  A 0.43 0.43 0.0 0 1 59.00 244.39
  L 88.53 173.23
  A 0.43 0.43 0.0 0 1 88.93 172.97
  L 97.05 172.95
  A 0.43 0.43 0.0 0 1 97.45 173.21
  L 127.21 244.41
  A 0.43 0.43 0.0 0 1 126.81 245.01
  L 115.90 244.93
  A 0.43 0.43 0.0 0 1 115.50 244.67
  L 107.65 225.68
  A 0.43 0.43 0.0 0 0 107.25 225.41
  L 78.88 225.43
  A 0.43 0.43 0.0 0 0 78.48 225.70
  Z
  M 82.29 214.85
  A 0.40 0.40 0.0 0 0 82.67 215.39
  L 103.19 215.39
  A 0.40 0.40 0.0 0 0 103.57 214.85
  L 93.30 187.38
  A 0.40 0.40 0.0 0 0 92.56 187.38
  L 82.29 214.85
  Z"
/>
<path fill="#c64128" d="
  M 148.27 183.14
  L 148.27 244.56
  A 0.41 0.41 0.0 0 1 147.86 244.97
  L 137.95 244.91
  A 0.41 0.41 0.0 0 1 137.54 244.50
  L 137.54 183.14
  A 0.41 0.41 0.0 0 0 137.13 182.73
  L 121.27 182.75
  A 0.41 0.41 0.0 0 1 120.86 182.34
  L 120.84 173.37
  A 0.41 0.41 0.0 0 1 121.25 172.96
  L 164.97 172.94
  A 0.41 0.41 0.0 0 1 165.38 173.35
  L 165.38 182.35
  A 0.41 0.41 0.0 0 1 164.97 182.76
  L 148.68 182.73
  A 0.41 0.41 0.0 0 0 148.27 183.14
  Z"
/>
<path fill="#c64128" d="
  M 187.79 182.72
  L 171.91 182.75
  A 0.46 0.46 0.0 0 1 171.45 182.29
  L 171.44 173.41
  A 0.46 0.46 0.0 0 1 171.90 172.95
  L 215.60 172.96
  A 0.46 0.46 0.0 0 1 216.06 173.42
  L 216.01 182.28
  A 0.46 0.46 0.0 0 1 215.55 182.74
  L 199.38 182.74
  A 0.46 0.46 0.0 0 0 198.92 183.20
  L 198.94 244.47
  A 0.46 0.46 0.0 0 1 198.48 244.93
  L 188.67 244.94
  A 0.46 0.46 0.0 0 1 188.21 244.48
  L 188.25 183.18
  A 0.46 0.46 0.0 0 0 187.79 182.72
  Z"
/>
<path fill="#c64128" d="
  M 431.21 237.97
  A 0.56 0.56 0.0 0 0 430.42 238.50
  L 430.50 244.18
  A 0.84 0.83 -87.3 0 1 429.57 245.03
  L 429.02 244.97
  A 0.94 0.93 3.7 0 1 428.18 244.02
  L 428.39 234.99
  A 0.60 0.59 -1.3 0 0 427.74 234.38
  L 425.24 234.57
  Q 424.82 234.60 424.83 235.01
  L 424.97 243.97
  Q 424.99 244.87 424.09 244.97
  Q 423.71 245.01 423.62 245.02
  Q 422.73 245.12 422.73 244.22
  L 422.73 235.26
  Q 422.73 234.54 422.01 234.52
  L 420.93 234.50
  Q 420.12 234.48 420.12 233.68
  L 420.12 233.19
  A 0.69 0.69 0.0 0 1 420.81 232.50
  L 431.06 232.56
  A 0.80 0.79 -8.4 0 1 431.82 233.12
  Q 433.00 237.12 434.36 240.46
  Q 434.90 241.81 435.37 240.43
  L 437.85 233.10
  Q 438.05 232.51 438.68 232.50
  L 440.78 232.48
  Q 441.33 232.48 441.33 233.03
  L 441.25 244.31
  A 0.70 0.69 -85.1 0 1 440.44 245.00
  L 439.95 244.92
  Q 438.74 244.72 438.85 243.50
  Q 438.99 241.98 439.01 240.48
  Q 439.01 240.00 438.70 239.61
  Q 438.51 239.38 438.21 239.39
  Q 437.55 239.41 437.35 240.03
  L 436.04 244.05
  A 1.26 1.25 -89.5 0 1 435.20 244.88
  Q 434.04 245.23 433.63 244.13
  Q 432.61 241.40 431.70 238.52
  Q 431.57 238.12 431.21 237.97
  Z"
/>
</svg>
