<?xml version="1.0" standalone="no"?>
<!DOCTYPE svg PUBLIC "-//W3C//DTD SVG 20010904//EN"
 "http://www.w3.org/TR/2001/REC-SVG-20010904/DTD/svg10.dtd">
<svg version="1.0" xmlns="http://www.w3.org/2000/svg"
 width="200.000000pt" height="200.000000pt" viewBox="0 0 200.000000 200.000000"
 preserveAspectRatio="xMidYMid meet">

<g transform="translate(0.000000,200.000000) scale(0.100000,-0.100000)"
fill="#000000" stroke="none">
<path d="M423 1492 l157 -157 0 -503 0 -502 175 0 175 0 0 250 c0 138 4 250 8
250 4 0 30 -23 57 -51 l50 -51 160 4 c156 3 162 4 228 35 138 65 241 201 267
350 38 230 -113 458 -344 519 -40 11 -163 14 -571 14 l-520 0 158 -158z m870
-213 c29 -13 57 -58 57 -91 0 -40 -36 -86 -77 -98 -23 -7 -98 -10 -188 -8
l-150 3 -3 103 -3 102 170 0 c101 0 180 -4 194 -11z"/>
</g>
</svg>
