<svg id="Layer_1" data-name="Layer 1" xmlns="http://www.w3.org/2000/svg" xmlns:xlink="http://www.w3.org/1999/xlink" viewBox="0 0 480.58 129.14"><defs><style>.cls-1{fill:url(#linear-gradient);}.cls-2{fill:#71be44;}.cls-3{fill:#231f20;}</style><linearGradient id="linear-gradient" x1="67.96" y1="44.32" x2="90.4" y2="44.32" gradientUnits="userSpaceOnUse"><stop offset="0" stop-color="#5a9b37"/><stop offset="1" stop-color="#71be44"/></linearGradient></defs><circle class="cls-1" cx="64.14" cy="44.32" r="27.9"/><path class="cls-2" d="M30.25,16.42H64.14a0,0,0,0,1,0,0v64.1A33.89,33.89,0,0,1,30.25,114.4h0a0,0,0,0,1,0,0v-98A0,0,0,0,1,30.25,16.42Z"/><path class="cls-3" d="M118.73,43.27a1.59,1.59,0,0,1,.74-.38,3.16,3.16,0,0,1,.74-.08h4.13a2,2,0,0,1,.87.16,1.64,1.64,0,0,1,.56.45,3,3,0,0,1,.37.66c.1.25.19.52.29.81l1.15,3.31c.51-.65,1-1.33,1.54-2A10.18,10.18,0,0,1,131,44.33a9.7,9.7,0,0,1,2.55-1.39,10.61,10.61,0,0,1,3.62-.55,17.14,17.14,0,0,1,6.92,1.39,16.34,16.34,0,0,1,5.45,3.81,17.4,17.4,0,0,1,3.58,5.7,20,20,0,0,1,0,14.15,17.45,17.45,0,0,1-3.58,5.71A16.51,16.51,0,0,1,144.06,77a16.82,16.82,0,0,1-6.92,1.4,10,10,0,0,1-3.07-.42,9.55,9.55,0,0,1-2.29-1.11A10.83,10.83,0,0,1,130,75.33c-.52-.55-1-1.1-1.51-1.64V86.46a2.06,2.06,0,0,1-.5,1.39,1.88,1.88,0,0,1-1.53.58h-6.27a2.23,2.23,0,0,1-.72-.14,2.86,2.86,0,0,1-.71-.38,2.19,2.19,0,0,1-.55-.62,1.66,1.66,0,0,1-.22-.83V44.83a1.76,1.76,0,0,1,.21-.9A2.92,2.92,0,0,1,118.73,43.27Zm25.59,17.1a9.48,9.48,0,0,0-.58-3.33,8.45,8.45,0,0,0-1.61-2.75,7.71,7.71,0,0,0-2.5-1.87,7.49,7.49,0,0,0-3.2-.68,8.45,8.45,0,0,0-3.28.64,8.82,8.82,0,0,0-4.6,4.37,8.45,8.45,0,0,0-.81,3.21v.41a8.66,8.66,0,0,0,2.55,6.15,8.85,8.85,0,0,0,2.77,1.85,8.36,8.36,0,0,0,3.37.69,7.35,7.35,0,0,0,3.2-.69,7.79,7.79,0,0,0,2.5-1.85,8.35,8.35,0,0,0,1.61-2.75A9.79,9.79,0,0,0,144.32,60.37Z"/><path class="cls-3" d="M157.66,45a2.06,2.06,0,0,1,.19-.9,1.9,1.9,0,0,1,.51-.64,2.27,2.27,0,0,1,.71-.36,2.45,2.45,0,0,1,.78-.13H164a1.51,1.51,0,0,1,1.1.41,3.64,3.64,0,0,1,.7,1,9.53,9.53,0,0,1,.5,1.4,13.58,13.58,0,0,0,.52,1.48l1.64-1.78a11.69,11.69,0,0,1,1.74-1.56,8.38,8.38,0,0,1,2-1.11,7.1,7.1,0,0,1,2.53-.43,15,15,0,0,1,2.65.22,11.21,11.21,0,0,1,2.2.65,12.43,12.43,0,0,1,2.07,1.08c.68.44,1.43.95,2.23,1.53a1.94,1.94,0,0,1,1.18,1.62,2.86,2.86,0,0,1-.46,1.4l-2.5,4.25a2.16,2.16,0,0,1-1.83,1.06,3.15,3.15,0,0,1-1.24-.3,8.64,8.64,0,0,0-2.39-1.71,6.68,6.68,0,0,0-2.79-.56,5.35,5.35,0,0,0-1.87.3,4.91,4.91,0,0,0-1.47.85,7.37,7.37,0,0,0-1.23,1.31c-.39.52-.77,1.08-1.15,1.7V75.63a2.21,2.21,0,0,1-.51,1.58,2.27,2.27,0,0,1-1.68.53H159.8a1.88,1.88,0,0,1-2.14-2.11Z"/><path class="cls-3" d="M184.69,60.37a18.22,18.22,0,0,1,2.46-9.17,17.8,17.8,0,0,1,6.42-6.4A18.52,18.52,0,0,1,197.89,43a18.28,18.28,0,0,1,4.83-.63,17.9,17.9,0,0,1,7,1.39,17.71,17.71,0,0,1,5.7,3.81,18,18,0,0,1,3.83,5.7,17.69,17.69,0,0,1,1.41,7.08,18,18,0,0,1-5.24,12.78,17.73,17.73,0,0,1-3.64,2.8,18.18,18.18,0,0,1-4.28,1.79,18,18,0,0,1-4.79.63A18.19,18.19,0,0,1,193.57,76a17.94,17.94,0,0,1-3.63-2.8,17.28,17.28,0,0,1-2.79-3.63,18.15,18.15,0,0,1-2.46-9.15Zm10,0a9.87,9.87,0,0,0,.56,3.38,8,8,0,0,0,1.59,2.73,7.36,7.36,0,0,0,2.49,1.82,7.82,7.82,0,0,0,3.3.67,7.48,7.48,0,0,0,3.22-.67,7.26,7.26,0,0,0,2.44-1.82,8.11,8.11,0,0,0,1.54-2.73,10.92,10.92,0,0,0,0-6.72,8.75,8.75,0,0,0-1.54-2.8,7.2,7.2,0,0,0-5.66-2.6,7.53,7.53,0,0,0-3.3.7,7.31,7.31,0,0,0-2.49,1.9,8.68,8.68,0,0,0-1.59,2.8A9.8,9.8,0,0,0,194.7,60.37Z"/><path class="cls-3" d="M219.75,45.65a2.27,2.27,0,0,1-.21-1.91c.23-.53.78-.8,1.63-.8h7a2,2,0,0,1,2,1.48l1,3.25c.37,1.2.76,2.41,1.18,3.66s.81,2.47,1.22,3.7.77,2.35,1.1,3.38.64,1.93.91,2.7.46,1.31.59,1.64L242,44.42a2.44,2.44,0,0,1,.81-1.18,2.27,2.27,0,0,1,1.27-.3h6.49a3.11,3.11,0,0,1,1.21.19,1,1,0,0,1,.55.52,1.28,1.28,0,0,1,0,.76,4.26,4.26,0,0,1-.27.89l-3,7.37c.13.31.38.84.74,1.58s.78,1.58,1.25,2.52.94,1.92,1.43,3,.89,2,1.21,2.89l6.72-18.2a3.16,3.16,0,0,1,.72-1.18,1.75,1.75,0,0,1,1.11-.3h6.06a2.6,2.6,0,0,1,1.81.49c.33.33.34,1,.05,1.87L257.37,76.56a2.14,2.14,0,0,1-.75.84,2.62,2.62,0,0,1-1.47.34h-2.87a2.79,2.79,0,0,1-1.57-.34,2.61,2.61,0,0,1-.79-.89l-5.1-12.44-5,12.49a3.44,3.44,0,0,1-.71.84,1.91,1.91,0,0,1-1.24.34H234.6a2.83,2.83,0,0,1-1.55-.31,1.9,1.9,0,0,1-.67-.87Z"/><path class="cls-3" d="M274.17,34.69a2.42,2.42,0,0,1,.44-1.48,1.73,1.73,0,0,1,1.5-.6h6.72a1.28,1.28,0,0,1,.57.15,1.87,1.87,0,0,1,.56.43,2.32,2.32,0,0,1,.44.65,2,2,0,0,1,.18.85V75.63a2,2,0,0,1-.59,1.58,2.2,2.2,0,0,1-1.52.53h-6.36a1.86,1.86,0,0,1-1.5-.53,2.4,2.4,0,0,1-.44-1.58Z"/><path class="cls-3" d="M318.12,73.58A18.25,18.25,0,0,1,312.69,77a16.49,16.49,0,0,1-6.38,1.25,18.63,18.63,0,0,1-7.1-1.37,18.26,18.26,0,0,1-9.86-9.51,17.14,17.14,0,0,1-1.48-7.15,18.61,18.61,0,0,1,2.26-8.91,18.25,18.25,0,0,1,2.63-3.63,16.54,16.54,0,0,1,3.47-2.83,16.84,16.84,0,0,1,8.9-2.5,16.19,16.19,0,0,1,4.41.61A17.25,17.25,0,0,1,317,47.33a17.84,17.84,0,0,1,2.68,3.35,16.18,16.18,0,0,1,1.74,3.89,14.88,14.88,0,0,1,.62,4.26c0,1,0,1.73,0,2.33a2.59,2.59,0,0,1-.43,1.44,2,2,0,0,1-1.27.74,12.29,12.29,0,0,1-2.62.21H298a6.73,6.73,0,0,0,3,4.81,8,8,0,0,0,2.33,1,9.93,9.93,0,0,0,2.33.3,10.22,10.22,0,0,0,2-.21,13.22,13.22,0,0,0,2-.55,10.87,10.87,0,0,0,1.79-.79,6.08,6.08,0,0,0,1.3-1,6.38,6.38,0,0,1,.75-.53,1.32,1.32,0,0,1,.67-.18,1.28,1.28,0,0,1,.73.25,5.76,5.76,0,0,1,.83.71l2.91,3.29a1.78,1.78,0,0,1,.38.64,2,2,0,0,1,.08.59,1.54,1.54,0,0,1-.3.95A3.62,3.62,0,0,1,318.12,73.58ZM304.94,50.75a5.16,5.16,0,0,0-2.07.43A7.9,7.9,0,0,0,301,52.31a10,10,0,0,0-1.57,1.62,9.57,9.57,0,0,0-1.14,1.84h14a16.67,16.67,0,0,0-1.24-2,8.6,8.6,0,0,0-1.54-1.59,6.8,6.8,0,0,0-2-1.07A8.08,8.08,0,0,0,304.94,50.75Z"/><path class="cls-3" d="M325.33,45a2.06,2.06,0,0,1,.19-.9,1.9,1.9,0,0,1,.51-.64,2.27,2.27,0,0,1,.71-.36,2.45,2.45,0,0,1,.78-.13h4.14a1.51,1.51,0,0,1,1.1.41,3.86,3.86,0,0,1,.7,1,9.53,9.53,0,0,1,.5,1.4,13.58,13.58,0,0,0,.52,1.48l1.63-1.78a12.78,12.78,0,0,1,1.74-1.56,8.27,8.27,0,0,1,2-1.11,7.06,7.06,0,0,1,2.53-.43,14.8,14.8,0,0,1,2.64.22,11.1,11.1,0,0,1,2.21.65,12.83,12.83,0,0,1,2.07,1.08c.68.44,1.43.95,2.23,1.53a1.94,1.94,0,0,1,1.18,1.62,2.89,2.89,0,0,1-.47,1.4l-2.49,4.25A2.18,2.18,0,0,1,348,54.2a3.14,3.14,0,0,1-1.23-.3,8.54,8.54,0,0,0-2.4-1.71,6.63,6.63,0,0,0-2.78-.56,5.32,5.32,0,0,0-1.87.3,4.91,4.91,0,0,0-1.47.85A7.37,7.37,0,0,0,337,54.09c-.39.52-.77,1.08-1.15,1.7V75.63a2.21,2.21,0,0,1-.51,1.58,2.28,2.28,0,0,1-1.69.53h-6.16a1.88,1.88,0,0,1-2.14-2.11Z"/><path class="cls-2" d="M356.76,43.27a1.69,1.69,0,0,1,.74-.38,3.28,3.28,0,0,1,.74-.08h4.14a1.94,1.94,0,0,1,.86.16,1.59,1.59,0,0,1,.57.45,3,3,0,0,1,.37.66c.1.25.19.52.28.81l1.16,3.31c.51-.65,1-1.33,1.54-2A9.87,9.87,0,0,1,369,44.33a9.54,9.54,0,0,1,2.55-1.39,10.61,10.61,0,0,1,3.62-.55,17.14,17.14,0,0,1,6.92,1.39,16.44,16.44,0,0,1,5.45,3.81,17.57,17.57,0,0,1,3.58,5.7,20.19,20.19,0,0,1,0,14.15,17.62,17.62,0,0,1-3.58,5.71A16.61,16.61,0,0,1,382.1,77a16.82,16.82,0,0,1-6.92,1.4,10,10,0,0,1-3.07-.42,9.55,9.55,0,0,1-2.29-1.11,10.5,10.5,0,0,1-1.77-1.51l-1.5-1.64V86.46a2.06,2.06,0,0,1-.5,1.39,1.89,1.89,0,0,1-1.53.58h-6.28a2.17,2.17,0,0,1-.71-.14,2.86,2.86,0,0,1-.71-.38,2.19,2.19,0,0,1-.55-.62,1.56,1.56,0,0,1-.22-.83V44.83a1.76,1.76,0,0,1,.21-.9A2.87,2.87,0,0,1,356.76,43.27Zm25.6,17.1a9.48,9.48,0,0,0-.58-3.33,8.3,8.3,0,0,0-1.62-2.75,7.4,7.4,0,0,0-5.69-2.55,8.41,8.41,0,0,0-3.28.64,8.82,8.82,0,0,0-4.6,4.37,8.1,8.1,0,0,0-.81,3.21v.41a8.55,8.55,0,0,0,2.55,6.15,8.85,8.85,0,0,0,2.77,1.85,8.33,8.33,0,0,0,3.37.69,7.38,7.38,0,0,0,3.2-.69,7.65,7.65,0,0,0,2.49-1.85,8.2,8.2,0,0,0,1.62-2.75A9.79,9.79,0,0,0,382.36,60.37Z"/><path class="cls-2" d="M395.7,45a2.06,2.06,0,0,1,.19-.9,1.9,1.9,0,0,1,.51-.64,2.27,2.27,0,0,1,.71-.36,2.45,2.45,0,0,1,.78-.13H402a1.51,1.51,0,0,1,1.1.41,3.86,3.86,0,0,1,.7,1,9.53,9.53,0,0,1,.5,1.4,13.58,13.58,0,0,0,.52,1.48l1.63-1.78a12.78,12.78,0,0,1,1.74-1.56,8.45,8.45,0,0,1,2-1.11,7.1,7.1,0,0,1,2.53-.43,14.8,14.8,0,0,1,2.64.22,11.1,11.1,0,0,1,2.21.65,12.83,12.83,0,0,1,2.07,1.08c.68.44,1.43.95,2.23,1.53a1.94,1.94,0,0,1,1.18,1.62,2.89,2.89,0,0,1-.47,1.4l-2.49,4.25a2.17,2.17,0,0,1-1.84,1.06,3.14,3.14,0,0,1-1.23-.3,8.54,8.54,0,0,0-2.4-1.71,6.63,6.63,0,0,0-2.78-.56,5.32,5.32,0,0,0-1.87.3,4.91,4.91,0,0,0-1.47.85,7.37,7.37,0,0,0-1.23,1.31c-.39.52-.77,1.08-1.15,1.7V75.63a2.21,2.21,0,0,1-.51,1.58,2.28,2.28,0,0,1-1.69.53h-6.16a1.88,1.88,0,0,1-2.14-2.11Z"/><path class="cls-2" d="M422.54,60.37a18.08,18.08,0,0,1,.64-4.85A18.42,18.42,0,0,1,425,51.2a17.82,17.82,0,0,1,2.8-3.61,17,17,0,0,1,3.63-2.79,18.25,18.25,0,0,1,9.15-2.41,18,18,0,0,1,17.3,22.82,18.5,18.5,0,0,1-1.8,4.31,17.67,17.67,0,0,1-2.8,3.63,17.88,17.88,0,0,1-12.7,5.22,18.41,18.41,0,0,1-4.84-.63A18.05,18.05,0,0,1,431.42,76a17.41,17.41,0,0,1-3.63-2.8,17.67,17.67,0,0,1-2.8-3.63,18.52,18.52,0,0,1-1.81-4.31A18,18,0,0,1,422.54,60.37Zm10,0a10.11,10.11,0,0,0,.56,3.38,8.39,8.39,0,0,0,1.59,2.73,7.5,7.5,0,0,0,2.5,1.82,7.75,7.75,0,0,0,3.3.67,7.48,7.48,0,0,0,3.22-.67,7.26,7.26,0,0,0,2.44-1.82,8.26,8.26,0,0,0,1.53-2.73,10.72,10.72,0,0,0,0-6.72,8.93,8.93,0,0,0-1.53-2.8,7.2,7.2,0,0,0-5.66-2.6,7.45,7.45,0,0,0-5.8,2.6A9.06,9.06,0,0,0,433.1,57,10.05,10.05,0,0,0,432.54,60.37Z"/></svg>
