<svg xmlns="http://www.w3.org/2000/svg" fill="none" stroke="#000" stroke-width="2" stroke-linecap="round" stroke-linejoin="round" viewBox="0 0 24 24"><path d="M15.39 4.39a1 1 0 0 0 1.68-.474 2.5 2.5 0 1 1 3.014 3.015 1 1 0 0 0-.474 1.68l1.683 1.682a2.414 2.414 0 0 1 0 3.414L19.61 15.39a1 1 0 0 1-1.68-.474 2.5 2.5 0 1 0-3.014 3.015 1 1 0 0 1 .474 1.68l-1.683 1.682a2.414 2.414 0 0 1-3.414 0L8.61 19.61a1 1 0 0 0-1.68.474 2.5 2.5 0 1 1-3.014-3.015 1 1 0 0 0 .474-1.68l-1.683-1.682a2.414 2.414 0 0 1 0-3.414L4.39 8.61a1 1 0 0 1 1.68.474 2.5 2.5 0 1 0 3.014-3.015 1 1 0 0 1-.474-1.68l1.683-1.682a2.414 2.414 0 0 1 3.414 0z"/></svg>
