<svg xmlns="http://www.w3.org/2000/svg" width="200" height="88.14" viewBox="0 0 200 88.14"><defs><linearGradient id="lh" x1="0" y1="0" x2="1" y2="0.14"><stop offset="0" stop-color="#2EE59B"></stop><stop offset="1" stop-color="#62DFF0"></stop></linearGradient></defs><g transform="scale(0.1621179084)"><path d="M1169.38,132.04c20.76-12.21,34.44-34.9,34.44-59.79,0-38.18-31.06-69.25-69.25-69.25l-216.9.23v145.17h-64.8V3h-79.95s-47.14,95.97-47.14,95.97V3h-52.09s-47.14,95.97-47.14,95.97V3h-53.48v69.6C560.37,30.64,521.34,0,475.28,0c-42.63,0-79.24,26.25-94.54,63.43-4.35-34.03-33.48-60.43-68.67-60.43h-100.01v47.43C202.9,22.91,176.91,3,146.35,3H0s46.34,46.33,46.34,46.33v151.64h53.47v-76.68l17.21,17.21h29.33c30.56,0,56.54-19.91,65.71-47.43v106.91h53.48v-81.51l76.01,81.51h69.62l-64.29-68.94c11.14-6.56,20.22-16.15,26.26-27.46,1.27,55.26,46.58,99.82,102.14,99.82,46.06,0,85.09-30.64,97.81-72.6v69.18h60.88l38.34-78.06v78.06h60.88l66.2-134.78v135.69h95.41l22.86-22.86v22.86h95.05l21.84-21.84v20.93h53.48v-81.5l76.01,81.5h69.62l-64.29-68.94ZM146.35,88.02h-46.54v-31.54h46.54c8.7,0,15.77,7.07,15.77,15.77s-7.07,15.77-15.77,15.77ZM312.07,88.02l-46.54-.18v-31.36h46.54c8.7,0,15.77,7.07,15.77,15.77s-7.08,15.77-15.77,15.77ZM475.28,150.92c-26.86,0-48.72-21.86-48.72-48.72s21.86-48.72,48.72-48.72,48.72,21.86,48.72,48.72-21.86,48.72-48.72,48.72ZM1034.56,148.41h-63.41v-20.35h42.91v-50.88h-42.91v-20.46h63.41v91.69ZM1134.57,88.02l-46.54-.18v-31.36h46.54c8.7,0,15.77,7.07,15.77,15.77s-7.07,15.77-15.77,15.77Z" fill="#ffffff"></path></g><text x="200" y="59.14" text-anchor="end" font-family="ProwlerInter, Inter, sans-serif" font-weight="600" font-size="19" letter-spacing="0.7" fill="url(#lh)">LOCAL</text><text x="200" y="84.14" text-anchor="end" font-family="ProwlerInter, Inter, sans-serif" font-weight="600" font-size="19" letter-spacing="0.7" fill="url(#lh)">DASHBOARD</text></svg>
